<!-- Simple Cat Icon for CatPass -->
<svg width="128" height="128" viewBox="0 0 128 128" xmlns="http://www.w3.org/2000/svg">
  <!-- Background circle -->
  <circle cx="64" cy="64" r="58" fill="#667eea" stroke="#4f46e5" stroke-width="4"/>
  
  <!-- Cat face -->
  <ellipse cx="64" cy="70" rx="35" ry="32" fill="#ffffff"/>
  
  <!-- Cat ears -->
  <path d="M35 45 L45 25 L55 45 Z" fill="#ffffff"/>
  <path d="M73 45 L83 25 L93 45 Z" fill="#ffffff"/>
  <path d="M40 42 L45 30 L50 42 Z" fill="#ffc107"/>
  <path d="M78 42 L83 30 L88 42 Z" fill="#ffc107"/>
  
  <!-- Cat eyes -->
  <circle cx="54" cy="65" r="6" fill="#333"/>
  <circle cx="74" cy="65" r="6" fill="#333"/>
  <circle cx="55" cy="63" r="2" fill="#fff"/>
  <circle cx="75" cy="63" r="2" fill="#fff"/>
  
  <!-- Cat nose -->
  <path d="M64 75 L59 80 L69 80 Z" fill="#ff69b4"/>
  
  <!-- Cat mouth -->
  <path d="M64 82 Q59 87 54 82" stroke="#333" stroke-width="2" fill="none"/>
  <path d="M64 82 Q69 87 74 82" stroke="#333" stroke-width="2" fill="none"/>
  
  <!-- Cat whiskers -->
  <line x1="40" y1="70" x2="50" y2="68" stroke="#333" stroke-width="2"/>
  <line x1="40" y1="75" x2="50" y2="75" stroke="#333" stroke-width="2"/>
  <line x1="78" y1="68" x2="88" y2="70" stroke="#333" stroke-width="2"/>
  <line x1="78" y1="75" x2="88" y2="75" stroke="#333" stroke-width="2"/>
</svg>
